<svg width="34" height="20" viewBox="0 0 34 20" fill="none" xmlns="http://www.w3.org/2000/svg">
<path d="M4.76897 0.583839L2.98712 0.311035L1.4743 10.1922L33.7906 15.1399L33.9642 14.006L31.4534 13.6216L31.8254 11.1918L29.7196 10.8694L29.3475 13.2992L28.2946 13.138L28.4434 12.166L26.0946 11.8064L26.7394 7.59479C25.6377 8.83527 21.6648 10.9624 19.2912 10.7648L17.5094 10.492L10.382 9.40079C9.80277 9.31212 9.21216 9.08431 8.6415 8.74168C6.33944 7.35947 4.36218 4.10854 4.76897 0.583839Z" fill="#AEE8F0"/>
<path d="M18.0054 7.25228L17.5094 10.492L19.2912 10.7648L19.7872 7.52509L18.0054 7.25228Z" fill="#AEE8F0"/>
<path d="M10.878 6.16107L9.07877 5.88561L8.6415 8.74168C9.21216 9.08431 9.80277 9.31212 10.382 9.40079L10.878 6.16107Z" fill="#AEE8F0"/>
<path d="M1.81768 19.8602L0.0358276 19.5874L1.54865 9.7062L33.8649 14.6539L33.6913 15.7878L31.1805 15.4034L30.8085 17.8332L28.7027 17.5108L29.0747 15.081L28.0218 14.9198L27.873 15.8917L25.5242 15.5321L24.8794 19.7437C24.1993 18.2304 21.0448 15.0121 18.7208 14.4905L16.9389 14.2177L9.81152 13.1264C9.23231 13.0378 8.6006 13.0784 7.95357 13.2346C5.34341 13.8648 2.48408 16.3752 1.81768 19.8602Z" fill="#AEE8F0"/>
<path d="M16.4429 17.4574L16.9389 14.2177L18.7208 14.4905L18.2248 17.7302L16.4429 17.4574Z" fill="#AEE8F0"/>
<path d="M9.31551 16.3662L7.5163 16.0907L7.95357 13.2346C8.6006 13.0784 9.23231 13.0378 9.81152 13.1264L9.31551 16.3662Z" fill="#AEE8F0"/>
</svg>
