<svg width="20" height="34" viewBox="0 0 20 34" fill="none" xmlns="http://www.w3.org/2000/svg">
<path d="M0.249542 31.3902V33.1928H10.2458V0.5H9.09872V3.04004H6.64062V5.1704H9.09872V6.23558H8.11548V8.61175H3.85476C5.24769 9.51305 7.95161 13.1183 8.11548 15.4944V17.2971V24.5075C8.11548 25.0935 7.97968 25.7117 7.72736 26.3277C6.70946 28.8124 3.7952 31.2589 0.249542 31.3902Z" fill="white"/>
<path d="M4.83801 17.2971H8.11548V15.4944H4.83801V17.2971Z" fill="white"/>
<path d="M4.83801 24.5075V26.3277H7.72736C7.97968 25.7117 8.11548 25.0935 8.11548 24.5075H4.83801Z" fill="white"/>
<path d="M19.7505 31.3902V33.1928H9.75418V0.5H10.9013V3.04004H13.3594V5.1704H10.9013V6.23558H11.8845V8.61175H16.1453C14.7523 9.51305 12.0484 13.1183 11.8845 15.4944V17.2971V24.5075C11.8845 25.0935 12.0203 25.7117 12.2727 26.3277C13.2906 28.8124 16.2048 31.2589 19.7505 31.3902Z" fill="white"/>
<path d="M15.162 17.2971H11.8845V15.4944H15.162V17.2971Z" fill="white"/>
<path d="M15.162 24.5075V26.3277H12.2727C12.0203 25.7117 11.8845 25.0935 11.8845 24.5075H15.162Z" fill="white"/>
</svg>
