<svg width="21" height="32" viewBox="0 0 21 32" fill="none" xmlns="http://www.w3.org/2000/svg">
<mask id="path-1-inside-1_75_4666" fill="white">
<path fill-rule="evenodd" clip-rule="evenodd" d="M10.5 31.5C10.5 31.5 20.5 16.0228 20.5 10.5C20.5 4.97715 16.0228 0.5 10.5 0.5C4.97715 0.5 0.5 4.97715 0.5 10.5C0.5 16.0228 10.5 31.5 10.5 31.5ZM10.5 16.5C13.8137 16.5 16.5 13.8137 16.5 10.5C16.5 7.18629 13.8137 4.5 10.5 4.5C7.18629 4.5 4.5 7.18629 4.5 10.5C4.5 13.8137 7.18629 16.5 10.5 16.5Z"/>
</mask>
<path fill-rule="evenodd" clip-rule="evenodd" d="M10.5 31.5C10.5 31.5 20.5 16.0228 20.5 10.5C20.5 4.97715 16.0228 0.5 10.5 0.5C4.97715 0.5 0.5 4.97715 0.5 10.5C0.5 16.0228 10.5 31.5 10.5 31.5ZM10.5 16.5C13.8137 16.5 16.5 13.8137 16.5 10.5C16.5 7.18629 13.8137 4.5 10.5 4.5C7.18629 4.5 4.5 7.18629 4.5 10.5C4.5 13.8137 7.18629 16.5 10.5 16.5Z" fill="white"/>
<path d="M10.5 31.5L7.9802 33.1281L10.5 37.028L13.0198 33.1281L10.5 31.5ZM17.5 10.5C17.5 11.2182 17.1077 12.725 16.1724 14.9475C15.2915 17.0405 14.0959 19.3919 12.8695 21.6288C11.6482 23.8562 10.4231 25.9218 9.50121 27.4334C9.04102 28.188 8.65818 28.8017 8.39148 29.225C8.25816 29.4366 8.15398 29.6004 8.08379 29.7103C8.0487 29.7653 8.02211 29.8068 8.00464 29.8339C7.99591 29.8475 7.98946 29.8576 7.98536 29.8639C7.98331 29.8671 7.98185 29.8694 7.98098 29.8707C7.98055 29.8714 7.98027 29.8718 7.98014 29.872C7.98008 29.8721 7.98009 29.8721 7.98006 29.8721C7.98011 29.8721 7.9802 29.8719 10.5 31.5C13.0198 33.1281 13.02 33.1278 13.0202 33.1275C13.0203 33.1273 13.0205 33.1269 13.0208 33.1266C13.0212 33.1258 13.0219 33.1249 13.0227 33.1236C13.0242 33.1212 13.0264 33.1179 13.0291 33.1136C13.0347 33.105 13.0425 33.0928 13.0527 33.0769C13.0731 33.0452 13.1027 32.9991 13.1408 32.9393C13.2171 32.8199 13.3278 32.6458 13.4679 32.4234C13.7481 31.9787 14.1465 31.3401 14.6238 30.5574C15.5769 28.9945 16.8518 26.8456 18.1305 24.5134C19.4041 22.1906 20.7085 19.6371 21.7026 17.2749C22.6423 15.0421 23.5 12.5433 23.5 10.5H17.5ZM10.5 3.5C14.366 3.5 17.5 6.63401 17.5 10.5H23.5C23.5 3.3203 17.6797 -2.5 10.5 -2.5V3.5ZM3.5 10.5C3.5 6.63401 6.63401 3.5 10.5 3.5V-2.5C3.3203 -2.5 -2.5 3.3203 -2.5 10.5H3.5ZM10.5 31.5C13.0198 29.8719 13.0199 29.8721 13.0199 29.8721C13.0199 29.8721 13.0199 29.8721 13.0199 29.872C13.0197 29.8718 13.0194 29.8714 13.019 29.8707C13.0182 29.8694 13.0167 29.8671 13.0146 29.8639C13.0105 29.8576 13.0041 29.8475 12.9954 29.8339C12.9779 29.8068 12.9513 29.7653 12.9162 29.7103C12.846 29.6004 12.7418 29.4366 12.6085 29.225C12.3418 28.8017 11.959 28.188 11.4988 27.4334C10.5769 25.9218 9.3518 23.8562 8.13055 21.6288C6.90408 19.3919 5.70845 17.0405 4.82761 14.9475C3.89227 12.725 3.5 11.2182 3.5 10.5H-2.5C-2.5 12.5433 -1.64227 15.0421 -0.702606 17.2749C0.291548 19.6371 1.59592 22.1906 2.86945 24.5134C4.1482 26.8456 5.42309 28.9945 6.37621 30.5574C6.85352 31.3401 7.25193 31.9787 7.5321 32.4234C7.67222 32.6458 7.78289 32.8199 7.85918 32.9393C7.89733 32.9991 7.9269 33.0452 7.94727 33.0769C7.95746 33.0928 7.96535 33.105 7.97086 33.1136C7.97362 33.1179 7.97578 33.1212 7.97734 33.1236C7.97812 33.1249 7.97875 33.1258 7.97923 33.1266C7.97947 33.1269 7.97971 33.1273 7.97983 33.1275C7.98004 33.1278 7.9802 33.1281 10.5 31.5ZM13.5 10.5C13.5 12.1569 12.1569 13.5 10.5 13.5V19.5C15.4706 19.5 19.5 15.4706 19.5 10.5H13.5ZM10.5 7.5C12.1569 7.5 13.5 8.84315 13.5 10.5H19.5C19.5 5.52944 15.4706 1.5 10.5 1.5V7.5ZM7.5 10.5C7.5 8.84315 8.84315 7.5 10.5 7.5V1.5C5.52944 1.5 1.5 5.52944 1.5 10.5H7.5ZM10.5 13.5C8.84315 13.5 7.5 12.1569 7.5 10.5H1.5C1.5 15.4706 5.52944 19.5 10.5 19.5V13.5Z" fill="white" mask="url(#path-1-inside-1_75_4666)"/>
</svg>
