<svg width="28" height="28" viewBox="0 0 28 28" fill="none" xmlns="http://www.w3.org/2000/svg">
<path d="M25.4547 0H2.54558C1.13921 0 0.00012207 1.13909 0.00012207 2.54545V25.4545C0.00012207 26.8609 1.13921 28 2.54558 28H25.4547C26.861 28 28.0001 26.8609 28.0001 25.4545V2.54545C28.0001 1.13909 26.861 0 25.4547 0ZM22.0959 19.0489L19.7185 19.082C19.7185 19.082 19.2056 19.1825 18.5348 18.7193C17.6452 18.1084 16.8065 16.5187 16.1523 16.7249C15.4892 16.9362 15.5096 18.3667 15.5096 18.3667C15.5096 18.3667 15.5147 18.6187 15.3632 18.7829C15.199 18.9598 14.877 18.942 14.877 18.942H13.8118C13.8118 18.942 11.4623 19.1367 9.39158 16.9782C7.1363 14.6249 5.14321 9.98073 5.14321 9.98073C5.14321 9.98073 5.02612 9.688 5.15085 9.53782C5.29212 9.37236 5.67267 9.36727 5.67267 9.36727L8.21812 9.35455C8.21812 9.35455 8.45739 9.39655 8.63049 9.52382C8.77176 9.62818 8.85194 9.82418 8.85194 9.82418C8.85194 9.82418 9.26303 10.8665 9.80903 11.8109C10.873 13.6513 11.3668 14.0547 11.7283 13.8575C12.2552 13.5698 12.0974 11.256 12.0974 11.256C12.0974 11.256 12.1076 10.416 11.8327 10.0418C11.6188 9.75036 11.2167 9.66382 11.041 9.64218C10.8972 9.62309 11.1314 9.28964 11.4368 9.13945C11.895 8.91545 12.7045 8.90273 13.6603 8.91164C14.4048 8.91927 14.6199 8.96509 14.9101 9.03636C15.7883 9.24891 15.4905 10.0685 15.4905 12.0349C15.4905 12.6649 15.3772 13.5507 15.8303 13.8422C16.0263 13.9682 16.5036 13.8613 17.6936 11.8325C18.2599 10.8704 18.6838 9.74018 18.6838 9.74018C18.6838 9.74018 18.7767 9.53909 18.9205 9.45255C19.0681 9.36345 19.2667 9.39145 19.2667 9.39145L21.9458 9.37491C21.9458 9.37491 22.7501 9.27818 22.8812 9.64345C23.0187 10.0253 22.5808 10.9175 21.4863 12.3773C19.6892 14.7751 19.4894 14.5524 20.9823 15.9396C22.4078 17.2645 22.7018 17.9085 22.7514 17.99C23.3407 18.9713 22.0959 19.0489 22.0959 19.0489Z" fill="white"/>
</svg>
