<svg width="28" height="28" viewBox="0 0 28 28" fill="none" xmlns="http://www.w3.org/2000/svg">
<mask id="path-1-inside-1_116_878" fill="white">
<path fill-rule="evenodd" clip-rule="evenodd" d="M14 27.5C21.4558 27.5 27.5 21.4558 27.5 14C27.5 6.54416 21.4558 0.5 14 0.5C6.54416 0.5 0.5 6.54416 0.5 14C0.5 21.4558 6.54416 27.5 14 27.5ZM12.5645 7.46774V14.4355V15.4355H13.5645H24.0161V13.4355H14.5645V7.46774H12.5645Z"/>
</mask>
<path fill-rule="evenodd" clip-rule="evenodd" d="M14 27.5C21.4558 27.5 27.5 21.4558 27.5 14C27.5 6.54416 21.4558 0.5 14 0.5C6.54416 0.5 0.5 6.54416 0.5 14C0.5 21.4558 6.54416 27.5 14 27.5ZM12.5645 7.46774V14.4355V15.4355H13.5645H24.0161V13.4355H14.5645V7.46774H12.5645Z" fill="#AEE8F0"/>
<path d="M12.5645 7.46774V6.46774H11.5645V7.46774H12.5645ZM12.5645 15.4355H11.5645V16.4355H12.5645V15.4355ZM24.0161 15.4355V16.4355H25.0161V15.4355H24.0161ZM24.0161 13.4355H25.0161V12.4355H24.0161V13.4355ZM14.5645 13.4355H13.5645V14.4355H14.5645V13.4355ZM14.5645 7.46774H15.5645V6.46774H14.5645V7.46774ZM26.5 14C26.5 20.9036 20.9036 26.5 14 26.5V28.5C22.0081 28.5 28.5 22.0081 28.5 14H26.5ZM14 1.5C20.9036 1.5 26.5 7.09644 26.5 14H28.5C28.5 5.99187 22.0081 -0.5 14 -0.5V1.5ZM1.5 14C1.5 7.09644 7.09644 1.5 14 1.5V-0.5C5.99187 -0.5 -0.5 5.99187 -0.5 14H1.5ZM14 26.5C7.09644 26.5 1.5 20.9036 1.5 14H-0.5C-0.5 22.0081 5.99187 28.5 14 28.5V26.5ZM13.5645 14.4355V7.46774H11.5645V14.4355H13.5645ZM13.5645 15.4355V14.4355H11.5645V15.4355H13.5645ZM13.5645 14.4355H12.5645V16.4355H13.5645V14.4355ZM24.0161 14.4355H13.5645V16.4355H24.0161V14.4355ZM23.0161 13.4355V15.4355H25.0161V13.4355H23.0161ZM14.5645 14.4355H24.0161V12.4355H14.5645V14.4355ZM13.5645 7.46774V13.4355H15.5645V7.46774H13.5645ZM12.5645 8.46774H14.5645V6.46774H12.5645V8.46774Z" fill="#AEE8F0" mask="url(#path-1-inside-1_116_878)"/>
</svg>
