<svg width="36" height="36" viewBox="0 0 36 36" fill="none" xmlns="http://www.w3.org/2000/svg">
<mask id="path-1-inside-1_75_4851" fill="white">
<path fill-rule="evenodd" clip-rule="evenodd" d="M18 36C27.9411 36 36 27.9411 36 18C36 8.05887 27.9411 0 18 0C8.05887 0 0 8.05887 0 18C0 27.9411 8.05887 36 18 36ZM16.4194 9.29032V18.5806V19.5806H17.4194H31.3548V17.5806H18.4194V9.29032H16.4194Z"/>
</mask>
<path fill-rule="evenodd" clip-rule="evenodd" d="M18 36C27.9411 36 36 27.9411 36 18C36 8.05887 27.9411 0 18 0C8.05887 0 0 8.05887 0 18C0 27.9411 8.05887 36 18 36ZM16.4194 9.29032V18.5806V19.5806H17.4194H31.3548V17.5806H18.4194V9.29032H16.4194Z" fill="white"/>
<path d="M16.4194 9.29032V8.29032H15.4194V9.29032H16.4194ZM16.4194 19.5806H15.4194V20.5806H16.4194V19.5806ZM31.3548 19.5806V20.5806H32.3548V19.5806H31.3548ZM31.3548 17.5806H32.3548V16.5806H31.3548V17.5806ZM18.4194 17.5806H17.4194V18.5806H18.4194V17.5806ZM18.4194 9.29032H19.4194V8.29032H18.4194V9.29032ZM35 18C35 27.3888 27.3888 35 18 35V37C28.4934 37 37 28.4934 37 18H35ZM18 1C27.3888 1 35 8.61116 35 18H37C37 7.50659 28.4934 -1 18 -1V1ZM1 18C1 8.61116 8.61116 1 18 1V-1C7.50659 -1 -1 7.50659 -1 18H1ZM18 35C8.61116 35 1 27.3888 1 18H-1C-1 28.4934 7.50659 37 18 37V35ZM17.4194 18.5806V9.29032H15.4194V18.5806H17.4194ZM17.4194 19.5806V18.5806H15.4194V19.5806H17.4194ZM17.4194 18.5806H16.4194V20.5806H17.4194V18.5806ZM31.3548 18.5806H17.4194V20.5806H31.3548V18.5806ZM30.3548 17.5806V19.5806H32.3548V17.5806H30.3548ZM18.4194 18.5806H31.3548V16.5806H18.4194V18.5806ZM17.4194 9.29032V17.5806H19.4194V9.29032H17.4194ZM16.4194 10.2903H18.4194V8.29032H16.4194V10.2903Z" fill="white" mask="url(#path-1-inside-1_75_4851)"/>
</svg>
